Coordinates
version=1
nRows=13
nColumns=40
inDegrees=yes

Units are S.I. units (second, meters, Newtons, ...)
If the header above contains a line with 'inDegrees', this indicates whether rotational values are in degrees (yes) or radians (no).

endheader
time	pelvis_tilt	pelvis_list	pelvis_rotation	pelvis_tx	pelvis_ty	pelvis_tz	hip_flexion_r	hip_adduction_r	hip_rotation_r	knee_angle_r	knee_angle_r_beta	ankle_angle_r	subtalar_angle_r	mtp_angle_r	hip_flexion_l	hip_adduction_l	hip_rotation_l	knee_angle_l	knee_angle_l_beta	ankle_angle_l	subtalar_angle_l	mtp_angle_l	lumbar_extension	lumbar_bending	lumbar_rotation	arm_flex_r	arm_add_r	arm_rot_r	elbow_flex_r	pro_sup_r	wrist_flex_r	wrist_dev_r	arm_flex_l	arm_add_l	arm_rot_l	elbow_flex_l	pro_sup_l	wrist_flex_l	wrist_dev_l
      1.37000000	     -5.57662378	      6.71735442	    -81.49171515	      0.27342296	      0.85437673	      1.28466462	     28.46002739	      0.59765312	    -17.96021068	     24.24474358	      0.42315060	     -6.61059080	      0.00000000	      0.00000000	     -0.26751431	    -12.07850668	     -3.50986320	     40.38803345	      0.70490416	    -17.78305741	      0.00000000	      0.00000000	     -0.33508741	      8.92728224	     -9.31145479	     -9.77931795	     -5.75015934	      0.50505123	     28.79974554	     89.07462272	    -23.64876256	      7.06941851	      0.97472607	     -9.64763570	     14.50566612	     45.81592661	     89.34515047	    -24.55056322	     -3.65229137
      1.38000000	     -6.12263821	      6.95240909	    -81.19553733	      0.27132212	      0.85499180	      1.29550501	     27.99251114	      1.35652144	    -18.27399858	     24.19804042	      0.42233548	     -5.93693708	      0.00000000	      0.00000000	      1.79362559	    -13.00401452	     -2.76204632	     43.27217926	      0.75524200	    -18.30717036	      0.00000000	      0.00000000	      0.09335186	      9.34600049	     -9.08458663	     -9.39536467	     -5.85850069	      0.41889224	     29.42859376	     89.08736819	    -23.25050186	      7.50237032	      0.42751440	     -9.45971275	     14.78036026	     44.13194446	     89.33278699	    -24.89914235	     -3.25902001
      1.39000000	     -6.15178672	      6.71302134	    -81.30286480	      0.26906747	      0.85653431	      1.30605809	     26.98371274	      1.85586995	    -17.89155257	     24.18214993	      0.42205814	     -5.06504289	      0.00000000	      0.00000000	      3.10417258	    -13.30419966	     -2.19269134	     45.70701912	      0.79773797	    -18.71556396	      0.00000000	      0.00000000	     -0.26369514	      9.30458323	     -8.52615332	     -8.76385015	     -5.94561518	      0.55113618	     29.94979309	     89.09797850	    -23.09155525	      7.55289956	     -0.09522812	     -9.33178493	     14.72321350	     42.72615722	     89.32866878	    -24.98255286	     -2.97302325
      1.40000000	     -5.99256631	      6.50975032	    -81.46757056	      0.26675804	      0.85817404	      1.31669755	     25.84925499	      2.15659554	    -17.81887259	     23.91150344	      0.41733446	     -4.42701061	      0.00000000	      0.00000000	      4.40597847	    -13.43395165	     -1.93195515	     47.94002484	      0.83671128	    -18.76955540	      0.00000000	      0.00000000	     -0.58309609	      9.02090553	     -7.96458920	     -8.11029186	     -6.01292490	      0.67346318	     30.46127355	     89.11136573	    -23.00446723	      7.54261956	     -0.65866479	     -9.27824401	     14.63567079	     41.34117439	     89.32273956	    -25.02595119	     -2.68245334
      1.41000000	     -7.07482080	      7.22076286	    -80.49912040	      0.26579749	      0.85795563	      1.32666821	     25.79564592	      3.12629003	    -18.85896873	     23.45465555	      0.40936096	     -3.82336170	      0.00000000	      0.00000000	      7.66589808	    -14.45439893	      0.03941918	     50.88043894	      0.88803118	    -17.49038265	      0.00000000	      0.00000000	      0.58583469	      9.95354423	     -8.22280095	     -7.86502041	     -6.31004069	      0.42323200	     31.48303212	     89.11155245	    -22.73195330	      7.99544457	     -1.03001115	     -9.11824796	     15.49364887	     39.50255105	     89.30442594	    -25.13329888	     -1.81416174
      1.42000000	     -6.99226163	      7.15193368	    -80.49678810	      0.26406021	      0.85947978	      1.33661413	     24.79828837	      3.44261817	    -18.57138918	     23.07995557	      0.40282122	     -3.22655533	      0.00000000	      0.00000000	      9.33776869	    -14.34621129	      0.83359506	     52.88752922	      0.92306152	    -16.82052594	      0.00000000	      0.00000000	      0.40302684	      9.76980055	     -7.75929739	     -7.19209020	     -6.48483530	      0.50109513	     32.19078869	     89.12712192	    -22.59606317	      8.02541090	     -1.47195643	     -9.03687480	     15.45176485	     38.05847712	     89.30054982	    -25.17215953	     -1.42141711
      1.43000000	     -7.38284660	      7.54087383	    -80.04823155	      0.26279438	      0.86011669	      1.34646587	     24.28414798	      3.94909985	    -19.18805626	     22.52844602	      0.39319556	     -2.89434660	      0.00000000	      0.00000000	     11.84609063	    -14.55856388	      2.04713662	     54.99643615	      0.95986889	    -15.38428307	      0.00000000	      0.00000000	      0.98094025	      9.99264013	     -7.63984915	     -6.72268675	     -6.72753532	      0.29936169	     33.10476574	     89.14144481	    -22.47080564	      8.21400407	     -1.89724636	     -8.99497139	     15.99395258	     36.52375624	     89.28541967	    -25.18040755	     -0.73477439
      1.44000000	     -7.46432593	      7.74594138	    -79.88488680	      0.26144987	      0.86124565	      1.35618812	     23.52263516	      4.29476629	    -19.34698976	     21.93553830	      0.38284737	     -2.56466123	      0.00000000	      0.00000000	     13.94424482	    -14.40169275	      2.95583159	     56.67943197	      0.98924271	    -14.11864432	      0.00000000	      0.00000000	      1.20293769	      9.93427326	     -7.24642412	     -6.16639752	     -6.98892789	      0.20036695	     33.97470482	     89.15585930	    -22.42770226	      8.26780595	     -2.30915150	     -8.94829629	     16.27485438	     35.12257074	     89.27701961	    -25.18402784	     -0.18940251
      1.45000000	     -7.44488532	      7.81753955	    -79.84050603	      0.26001113	      0.86266615	      1.36594726	     22.57440740	      4.61101337	    -19.38019988	     21.29308824	      0.37163450	     -2.30601409	      0.00000000	      0.00000000	     15.75731749	    -14.15570258	      3.62480583	     58.00119456	      1.01231182	    -12.65190103	      0.00000000	      0.00000000	      1.23778379	      9.78792929	     -6.76933344	     -5.55926491	     -7.25143676	      0.17481913	     34.83642007	     89.16721200	    -22.53284895	      8.15790967	     -2.73212482	     -8.94587918	     16.49992201	     33.82314952	     89.27004413	    -25.19770148	      0.22241548
      1.46000000	     -7.18306876	      7.78596565	    -79.96759442	      0.25863818	      0.86438546	      1.37567592	     21.45671365	      4.75206441	    -19.14901786	     20.60333224	      0.35959598	     -2.05764770	      0.00000000	      0.00000000	     17.26940858	    -13.64468269	      4.03268142	     58.90543507	      1.02809379	    -11.43268190	      0.00000000	      0.00000000	      1.07839469	      9.41075948	     -6.18530870	     -4.86667553	     -7.54988951	      0.26121598	     35.65729239	     89.17584430	    -22.59929211	      7.98891218	     -3.21464793	     -8.93878333	     16.43131408	     32.69757795	     89.26689127	    -25.23178303	      0.47242533
      1.47000000	     -6.90133825	      7.76938388	    -80.14448968	      0.25706689	      0.86603093	      1.38532714	     20.37591079	      4.84855670	    -19.14990175	     19.96358259	      0.34843025	     -1.89700839	      0.00000000	      0.00000000	     18.78580324	    -13.18880619	      4.16239135	     59.58828324	      1.04001174	    -10.42430474	      0.00000000	      0.00000000	      0.91815325	      8.98862531	     -5.56605294	     -4.14315364	     -7.80718429	      0.30203905	     36.41944400	     89.18988301	    -22.67614316	      7.83020105	     -3.75185518	     -9.03893669	     16.39235685	     31.80064496	     89.25838959	    -25.26427956	      0.65882279
      1.48000000	     -6.99245115	      8.10132776	    -80.15137348	      0.25588296	      0.86696264	      1.39509610	     19.66615248	      5.24340320	    -19.12919770	     19.15858088	      0.33438032	     -1.89289394	      0.00000000	      0.00000000	     20.69102833	    -12.90520840	      4.62461944	     60.02763963	      1.04767995	     -8.47227625	      0.00000000	      0.00000000	      1.34172078	      8.93462500	     -4.95459011	     -3.75846436	     -8.13124162	     -0.03152520	     37.56746119	     89.19893953	    -23.58735642	      7.44311816	     -4.15081824	     -9.05588443	     17.02262904	     30.56032501	     89.24837738	    -25.52541871	      0.99529295
      1.49000000	     -6.65514117	      8.16403629	    -80.37878292	      0.25452852	      0.86841027	      1.40475997	     18.63132646	      5.28332824	    -18.91219623	     18.44140601	      0.32186325	     -1.76212429	      0.00000000	      0.00000000	     22.07571496	    -12.29752750	      4.64980149	     60.01998725	      1.04754639	     -7.34498555	      0.00000000	      0.00000000	      1.29510174	      8.44848768	     -4.33457140	     -3.08032253	     -8.44762094	      0.00213991	     38.44728792	     89.20560759	    -23.78282332	      7.21473291	     -4.75431159	     -9.15333102	     16.87861248	     29.83415907	     89.24359473	    -25.63119826	      1.09126630
